<svg width="2658" height="878" viewBox="0 0 2658 878" fill="none" xmlns="http://www.w3.org/2000/svg">
<rect x="162" y="131" width="591" height="615" fill="white"/>
<path d="M234.464 0.958743C126.998 13.3587 36.8642 90.6921 9.13086 194.559C0.197531 227.892 0.730864 215.359 0.197531 427.492C-0.335802 623.225 -0.0691361 638.559 4.59753 663.225C18.0642 734.159 59.1309 795.359 120.464 835.892C145.264 852.292 179.931 866.425 209.798 872.559C236.998 878.159 243.931 878.292 449.798 877.759C642.998 877.359 647.398 877.225 660.598 874.559C689.531 868.559 709.798 861.892 732.464 850.559C811.131 811.359 865.131 736.025 876.464 649.359C879.398 626.425 879.398 251.225 876.464 228.292C862.598 122.825 785.664 35.4921 682.464 8.29208C650.464 -0.241257 666.598 0.42541 445.798 0.0254099C335.131 -0.107923 239.931 0.292077 234.464 0.958743ZM489.531 185.225C533.531 198.692 571.931 233.759 594.464 281.225C608.598 310.692 614.464 337.225 614.464 370.825V391.359L624.198 399.225C636.464 409.359 655.798 429.492 664.731 441.359C698.064 486.159 710.998 546.559 697.531 594.159C687.398 629.892 656.198 664.025 614.598 684.825C599.531 692.292 586.598 695.359 566.464 696.425C525.131 698.292 481.264 687.892 445.131 667.359L435.531 662.025L418.064 670.025C394.064 680.825 384.598 684.292 364.464 689.492C341.264 695.359 324.464 697.359 304.598 696.425C278.731 695.225 257.531 688.292 240.331 675.225C218.198 658.559 188.731 615.359 179.531 586.025C175.531 572.959 175.131 544.825 178.864 527.492C188.331 483.892 209.798 443.625 243.798 406.292L255.664 393.225L254.198 383.359C252.198 369.359 253.798 333.759 256.998 318.025C269.798 255.092 309.798 205.892 362.731 188.292C382.331 181.625 390.331 180.959 435.798 181.359C477.131 181.625 477.931 181.759 489.531 185.225Z" fill="url(#paint0_linear_371_92)"/>
<path d="M389.931 192.959C319.797 203.226 268.997 266.426 264.331 349.359C261.131 404.292 286.064 485.226 322.731 539.492C328.464 547.892 334.197 556.159 335.664 557.892L338.331 560.959L352.731 556.159C360.597 553.492 367.664 550.826 368.197 550.292C368.864 549.626 365.664 544.692 361.131 539.359C336.597 510.159 317.797 470.959 308.597 429.892C299.264 387.892 296.464 343.359 301.664 316.826C312.064 263.359 342.864 221.226 388.864 197.226C396.731 193.092 400.197 191.092 398.331 191.626C398.064 191.759 394.197 192.292 389.931 192.959Z" fill="url(#paint1_linear_371_92)"/>
<path d="M438.731 192.825C416.998 195.892 388.998 207.492 371.664 220.692C359.398 230.025 344.864 245.759 336.064 259.225C308.731 301.225 303.398 348.692 317.931 420.825C326.464 463.759 345.664 504.292 371.798 535.092L379.931 544.825L386.198 541.625C392.464 538.425 417.531 522.025 423.664 517.092L426.864 514.559L415.798 501.492C389.131 469.892 374.331 439.759 368.998 406.825C368.198 400.959 367.398 386.559 367.264 374.825C367.264 349.759 370.064 335.892 378.198 320.292C388.464 300.692 409.798 284.959 432.464 280.159C444.598 277.625 463.931 277.625 473.798 280.159C498.464 286.692 518.998 307.092 529.131 335.359L533.398 347.225L542.198 350.825C555.398 356.292 580.331 369.092 592.464 376.692L603.131 383.225L603.531 369.092C605.531 292.959 551.664 213.892 485.131 195.492C473.664 192.292 451.398 191.092 438.731 192.825Z" fill="url(#paint2_linear_371_92)"/>
<path d="M459.797 291.092C461.664 292.292 467.53 297.625 472.864 302.959C480.197 310.425 483.797 315.359 487.93 323.892L493.264 334.959L506.064 338.559C513.13 340.559 519.13 341.892 519.53 341.625C520.597 340.425 510.464 320.559 505.397 313.759C495.53 300.692 479.53 291.492 463.797 289.625C456.597 288.825 456.464 288.825 459.797 291.092Z" fill="url(#paint3_linear_371_92)"/>
<path d="M422.465 294.559C412.331 298.692 403.665 304.959 396.865 312.825C391.531 318.959 384.731 330.159 385.665 331.092C385.798 331.359 390.731 330.825 396.598 329.892C410.731 327.759 453.398 328.025 468.198 330.425C474.598 331.492 479.798 332.025 479.798 331.625C479.798 328.559 469.931 314.825 463.398 308.425C455.131 300.425 438.998 291.492 432.998 291.492C431.265 291.492 426.465 292.959 422.465 294.559Z" fill="url(#paint4_linear_371_92)"/>
<path d="M414.465 339.625C399.265 340.425 382.865 342.692 381.398 344.025C379.665 345.892 378.465 357.092 378.465 373.359V391.759L382.865 390.959C426.332 381.625 472.732 384.159 510.598 398.159C577.665 422.959 636.198 481.892 653.665 542.425C662.465 572.825 660.598 614.025 649.265 642.025C644.598 653.359 646.065 653.092 657.932 640.559C666.865 630.959 673.532 621.359 679.665 609.225C696.598 575.492 695.665 528.292 677.265 484.959C656.065 435.225 607.398 390.959 543.798 363.759C498.865 344.559 459.532 337.092 414.465 339.625Z" fill="url(#paint5_linear_371_92)"/>
<path d="M416.464 396.826C409.93 397.359 398.864 398.959 392.197 400.292C382.33 402.159 379.797 403.092 379.797 404.826C379.797 409.359 386.197 432.292 389.664 440.026C392.73 446.826 393.53 447.759 396.064 446.959C411.93 442.426 417.797 441.626 435.797 441.626C457.53 441.492 469.664 443.626 486.464 450.559C528.064 467.492 560.997 505.492 572.064 549.092C576.064 564.959 575.13 584.959 569.797 596.559C564.864 607.492 555.93 615.626 544.864 619.359C531.93 623.759 516.73 625.492 504.197 624.026L493.397 622.692L480.33 632.559C472.997 638.026 462.464 645.359 456.73 648.826C446.33 655.226 446.33 655.359 449.397 657.359C455.13 661.092 477.664 671.092 488.464 674.692C524.864 686.692 570.464 689.092 596.597 680.559C620.73 672.692 635.264 654.826 644.064 622.159C647.93 607.492 648.997 572.159 645.797 556.692C632.33 489.892 563.93 422.692 489.797 403.492C465.397 397.092 439.53 394.826 416.464 396.826Z" fill="url(#paint6_linear_371_92)"/>
<path d="M252.199 413.225C223.532 443.359 200.466 484.425 190.866 522.959C187.799 535.359 187.266 540.292 187.266 556.159C187.266 572.959 187.666 575.892 190.866 585.225C192.866 590.825 195.932 597.892 197.666 600.692C205.132 612.559 220.732 622.292 240.732 627.759C255.132 631.625 289.132 631.892 308.466 628.292C348.866 620.825 394.066 599.225 430.066 570.025C445.132 557.759 469.666 532.959 482.466 516.825C494.066 502.292 511.266 477.225 510.332 476.292C507.932 474.159 492.732 465.225 487.266 462.825L480.332 459.759L474.066 472.025C460.866 497.892 440.466 519.892 412.599 538.425C354.866 576.692 301.666 584.559 275.266 558.959C256.866 540.959 254.866 510.959 269.799 478.692L274.466 468.292L270.999 457.625C268.999 451.759 265.266 438.159 262.599 427.225L257.666 407.492L252.199 413.225Z" fill="url(#paint7_linear_371_92)"/>
<path d="M423.131 452.692C411.931 454.159 399.931 456.825 399.265 458.025C397.798 460.292 422.998 494.692 432.065 503.225L435.398 506.292L442.465 498.559C452.331 487.892 469.131 461.625 469.131 456.959C469.131 454.025 436.731 450.959 423.131 452.692Z" fill="url(#paint8_linear_371_92)"/>
<path d="M277.263 488.959C264.996 516.159 270.863 546.959 290.329 556.692C300.996 562.159 301.129 562.159 301.129 551.892C301.263 546.959 301.796 540.159 302.329 536.959C303.529 531.359 303.129 530.159 295.929 516.292C291.796 508.159 286.463 497.225 284.196 492.159L280.063 482.825L277.263 488.959Z" fill="url(#paint9_linear_371_92)"/>
<path d="M510.199 497.759C460.065 571.625 390.465 621.759 314.999 638.425C304.199 640.692 297.265 641.225 276.465 641.359C249.399 641.492 240.999 640.159 223.265 633.225C218.865 631.625 215.132 630.425 214.865 630.559C214.065 631.492 235.665 656.425 242.999 663.092C274.465 691.092 329.932 693.492 391.265 669.492C424.732 656.425 462.465 634.159 489.132 611.759C512.065 592.559 540.865 560.025 552.732 539.892L555.932 534.292L551.665 525.892C549.399 521.225 544.999 513.892 542.065 509.492C536.732 501.759 521.532 484.825 519.799 484.825C519.399 484.825 514.999 490.692 510.199 497.759Z" fill="url(#paint10_linear_371_92)"/>
<path d="M311.797 553.092C311.797 561.359 311.93 561.892 315.13 562.425C316.997 562.825 319.93 562.825 321.664 562.559C324.864 561.892 324.864 561.759 318.864 553.625C315.53 549.225 312.597 545.225 312.33 544.959C312.064 544.692 311.797 548.292 311.797 553.092Z" fill="url(#paint11_linear_371_92)"/>
<path d="M556.064 554.425C553.664 557.892 551.797 560.959 551.797 561.359C551.797 561.759 554.197 562.159 557.13 562.159C562.33 562.159 562.464 562.025 562.33 557.759C562.33 555.492 561.797 552.292 561.264 550.959C560.33 548.692 559.797 549.092 556.064 554.425Z" fill="url(#paint12_linear_371_92)"/>
<path d="M530.465 586.825C523.665 594.559 515.132 603.359 511.399 606.425C504.999 611.892 504.865 612.025 507.932 613.225C512.332 614.825 532.732 612.159 541.799 608.692C554.199 604.025 561.665 593.892 563.399 579.492L564.199 572.825H553.532H542.732L530.465 586.825Z" fill="url(#paint13_linear_371_92)"/>
<path d="M1692.33 312.93C1692.33 313.463 1689.93 381.73 1687 464.663C1684.06 547.463 1681.66 616.396 1681.66 617.596C1681.66 619.73 1683.26 619.996 1695.53 619.996C1703.26 619.996 1709.8 619.596 1710.2 618.93C1710.46 618.396 1708.73 563.596 1706.2 497.33C1701.26 363.063 1701.26 363.996 1702.73 363.996C1703.4 363.996 1752.46 422.796 1811.8 494.663C1895.4 595.863 1920.33 625.196 1922.73 625.33C1925.4 625.33 1925.66 624.663 1925.66 618.396C1925.66 609.596 1934.6 348.93 1935.53 331.596L1936.2 318.663H1921.66H1907V322.396C1907 328.93 1914.86 539.996 1915.66 557.063C1916.46 571.196 1916.33 573.463 1914.6 573.063C1913.53 572.93 1864.2 514.13 1805.13 442.663C1708.06 325.33 1692.33 307.196 1692.33 312.93Z" fill="white"/>
<path d="M951 329.463V340.396L957.4 339.596C960.867 339.196 983.133 336.396 1007 333.463C1030.87 330.529 1052.87 327.729 1056.07 327.329L1061.67 326.663V473.463V620.129L1076.07 619.729L1090.33 619.329L1090.73 473.063L1091 326.663L1096.73 327.329C1099.8 327.729 1123.93 330.796 1150.33 333.996C1176.73 337.329 1199 339.996 1199.93 339.996C1201.13 339.996 1201.67 337.063 1201.67 329.329V318.663H1076.33H951V329.463Z" fill="white"/>
<path d="M1271.27 468.929L1271.67 619.329L1286.07 619.729L1300.33 620.129V474.529V329.063L1325.4 329.596C1346.33 330.129 1351.53 330.663 1357.93 333.063C1374.47 339.063 1384.73 349.596 1390.07 365.996C1394.07 378.529 1394.33 404.796 1390.47 415.996C1381.93 441.196 1362.73 453.463 1329.67 454.929C1322.87 455.329 1322.33 455.596 1321.93 458.796C1321.53 462.263 1321.8 462.263 1331 463.196C1349.53 465.063 1362.47 470.529 1374.73 481.996C1389.8 495.996 1398.33 512.396 1409.67 549.996C1424.87 600.396 1437.67 615.596 1467.8 618.663C1485.93 620.663 1493.67 620.396 1493.67 617.996C1493.67 616.929 1492.6 615.996 1491.27 615.996C1489.93 615.996 1484.73 613.996 1479.53 611.463C1461.53 602.929 1452.87 588.929 1439.27 547.063C1422.6 495.996 1403.67 472.929 1370.47 463.329C1366.2 462.129 1363.27 460.529 1363.93 459.996C1364.47 459.463 1368.6 457.996 1373 456.663C1391.67 451.463 1409 438.529 1416.6 424.529C1426.47 406.263 1427 379.596 1417.93 359.996C1412.87 349.196 1399.4 336.263 1387 330.263C1367.13 320.663 1353.4 318.663 1306.6 318.663H1271L1271.27 468.929Z" fill="white"/>
<path d="M1547.27 468.929L1547.67 619.329L1562.07 619.729L1576.33 620.129V469.329V318.663H1561.67H1547L1547.27 468.929Z" fill="white"/>
<path d="M2041.66 469.329V620.129L2056.06 619.729L2070.33 619.329L2070.73 468.929L2071 318.663H2056.33H2041.66V469.329Z" fill="white"/>
<path d="M2140.33 329.463V340.396L2146.73 339.596C2150.2 339.196 2172.47 336.396 2196.33 333.463C2220.2 330.529 2242.2 327.729 2245.4 327.329L2251 326.663V473.463V620.129L2265.4 619.729L2279.67 619.329L2280.07 473.063L2280.33 326.663L2286.07 327.329C2289.13 327.729 2313.27 330.796 2339.67 333.996C2366.07 337.329 2388.33 339.996 2389.27 339.996C2390.47 339.996 2391 337.063 2391 329.329V318.663H2265.67H2140.33V329.463Z" fill="white"/>
<path d="M2419.4 319.596C2419.66 320.263 2443.8 359.463 2472.86 406.796L2525.66 493.063V556.529V620.129L2540.73 619.729L2555.66 619.329L2556.33 551.996L2557 484.663L2607.4 402.529C2635 357.329 2657.66 319.996 2657.66 319.463C2657.66 319.063 2650.6 318.663 2641.8 318.663H2626.06L2587.93 396.929C2567 440.129 2549.13 475.329 2548.33 475.329C2547.4 475.329 2525.26 440.129 2499.13 397.063L2451.66 318.796H2435.26C2426.2 318.663 2419.13 319.063 2419.4 319.596Z" fill="white"/>
<defs>
<linearGradient id="paint0_linear_371_92" x1="439.332" y1="877.963" x2="439.332" y2="-0.000183105" gradientUnits="userSpaceOnUse">
<stop stop-color="#0346C4"/>
<stop offset="1" stop-color="#1394F1"/>
</linearGradient>
<linearGradient id="paint1_linear_371_92" x1="331.44" y1="560.959" x2="331.44" y2="191.541" gradientUnits="userSpaceOnUse">
<stop stop-color="#0346C4"/>
<stop offset="1" stop-color="#1394F1"/>
</linearGradient>
<linearGradient id="paint2_linear_371_92" x1="456.822" y1="544.825" x2="456.822" y2="192.031" gradientUnits="userSpaceOnUse">
<stop stop-color="#0346C4"/>
<stop offset="1" stop-color="#1394F1"/>
</linearGradient>
<linearGradient id="paint3_linear_371_92" x1="488.65" y1="341.659" x2="488.65" y2="289.14" gradientUnits="userSpaceOnUse">
<stop stop-color="#0346C4"/>
<stop offset="1" stop-color="#1394F1"/>
</linearGradient>
<linearGradient id="paint4_linear_371_92" x1="432.688" y1="331.758" x2="432.688" y2="291.492" gradientUnits="userSpaceOnUse">
<stop stop-color="#0346C4"/>
<stop offset="1" stop-color="#1394F1"/>
</linearGradient>
<linearGradient id="paint5_linear_371_92" x1="535.105" y1="650.254" x2="535.105" y2="339.148" gradientUnits="userSpaceOnUse">
<stop stop-color="#0346C4"/>
<stop offset="1" stop-color="#1394F1"/>
</linearGradient>
<linearGradient id="paint6_linear_371_92" x1="513.74" y1="685.636" x2="513.74" y2="396.121" gradientUnits="userSpaceOnUse">
<stop stop-color="#0346C4"/>
<stop offset="1" stop-color="#1394F1"/>
</linearGradient>
<linearGradient id="paint7_linear_371_92" x1="348.817" y1="630.833" x2="348.817" y2="407.492" gradientUnits="userSpaceOnUse">
<stop stop-color="#0346C4"/>
<stop offset="1" stop-color="#1394F1"/>
</linearGradient>
<linearGradient id="paint8_linear_371_92" x1="434.167" y1="506.292" x2="434.167" y2="452.189" gradientUnits="userSpaceOnUse">
<stop stop-color="#0346C4"/>
<stop offset="1" stop-color="#1394F1"/>
</linearGradient>
<linearGradient id="paint9_linear_371_92" x1="286.851" y1="560.332" x2="286.851" y2="482.825" gradientUnits="userSpaceOnUse">
<stop stop-color="#0346C4"/>
<stop offset="1" stop-color="#1394F1"/>
</linearGradient>
<linearGradient id="paint10_linear_371_92" x1="385.388" y1="685.932" x2="385.388" y2="484.825" gradientUnits="userSpaceOnUse">
<stop stop-color="#0346C4"/>
<stop offset="1" stop-color="#1394F1"/>
</linearGradient>
<linearGradient id="paint11_linear_371_92" x1="317.796" y1="562.745" x2="317.796" y2="544.945" gradientUnits="userSpaceOnUse">
<stop stop-color="#0346C4"/>
<stop offset="1" stop-color="#1394F1"/>
</linearGradient>
<linearGradient id="paint12_linear_371_92" x1="557.078" y1="562.159" x2="557.078" y2="549.653" gradientUnits="userSpaceOnUse">
<stop stop-color="#0346C4"/>
<stop offset="1" stop-color="#1394F1"/>
</linearGradient>
<linearGradient id="paint13_linear_371_92" x1="535.092" y1="613.701" x2="535.092" y2="572.825" gradientUnits="userSpaceOnUse">
<stop stop-color="#0346C4"/>
<stop offset="1" stop-color="#1394F1"/>
</linearGradient>
</defs>
</svg>
